<?xml version="1.0" encoding="iso-8859-1"?>
<!-- Generator: Adobe Illustrator 19.0.0, SVG Export Plug-In . SVG Version: 6.00 Build 0)  -->
<svg version="1.1" id="Layer_1" xmlns="http://www.w3.org/2000/svg" xmlns:xlink="http://www.w3.org/1999/xlink" x="0px" y="0px"
	 viewBox="0 0 512 512" style="enable-background:new 0 0 512 512;" xml:space="preserve">
<path id="SVGCleanerId_0" style="fill:#D8143A;" d="M439.825,183.827C439.825,82.464,357.36,0,255.999,0
	S72.175,82.464,72.175,183.827c0,92.385,68.509,169.058,157.389,181.917v34.362h-32.582c-14.6,0-26.437,11.837-26.437,26.437
	s11.837,26.437,26.437,26.437h32.582l0.002,32.586c0,14.6,11.837,26.435,26.437,26.435c14.6,0,26.437-11.837,26.437-26.437
	l-0.002-32.584h32.582c14.6,0,26.437-11.837,26.437-26.437s-11.837-26.437-26.437-26.437h-32.582v-34.362
	C371.315,352.887,439.825,276.212,439.825,183.827z M255.999,314.78c-72.207,0-130.953-58.746-130.953-130.953
	c0.002-72.209,58.747-130.954,130.953-130.954s130.953,58.746,130.953,130.954C386.952,256.034,328.206,314.78,255.999,314.78z"/>
<g>
	<path id="SVGCleanerId_0_1_" style="fill:#D8143A;" d="M439.825,183.827C439.825,82.464,357.36,0,255.999,0
		S72.175,82.464,72.175,183.827c0,92.385,68.509,169.058,157.389,181.917v34.362h-32.582c-14.6,0-26.437,11.837-26.437,26.437
		s11.837,26.437,26.437,26.437h32.582l0.002,32.586c0,14.6,11.837,26.435,26.437,26.435c14.6,0,26.437-11.837,26.437-26.437
		l-0.002-32.584h32.582c14.6,0,26.437-11.837,26.437-26.437s-11.837-26.437-26.437-26.437h-32.582v-34.362
		C371.315,352.887,439.825,276.212,439.825,183.827z M255.999,314.78c-72.207,0-130.953-58.746-130.953-130.953
		c0.002-72.209,58.747-130.954,130.953-130.954s130.953,58.746,130.953,130.954C386.952,256.034,328.206,314.78,255.999,314.78z"/>
</g>
<path style="fill:#FF3F62;" d="M255.999,0C154.64,0,72.175,82.464,72.175,183.827c0,0.878,0.018,1.75,0.03,2.624h52.91
	c-0.018-0.876-0.067-1.745-0.067-2.624c0-72.209,58.746-130.954,130.951-130.954s130.953,58.746,130.953,130.954
	c0,0.879-0.049,1.748-0.067,2.624h52.91c0.012-0.874,0.03-1.748,0.03-2.624C439.825,82.464,357.36,0,255.999,0z"/>
<g>
</g>
<g>
</g>
<g>
</g>
<g>
</g>
<g>
</g>
<g>
</g>
<g>
</g>
<g>
</g>
<g>
</g>
<g>
</g>
<g>
</g>
<g>
</g>
<g>
</g>
<g>
</g>
<g>
</g>
</svg>
